# xmcd
#
# Track frame offsets: 
#        150
#        13020
#        25393
#        39821
#        52970
#        66565
#        78724
#        90072
#        103023
#        116272
#        129474
#        140454
#        153183
#        167877
#        180787
#        195276
#        208031
#        221182
#        234027
#        244313
#        257579
#        270314
#        284299
#        299209
#
# Disc length: 4155 seconds
#
# Revision: 0
# Processed by: cddbd v1.5.2PL0 Copyright (c) Steve Scherf et al.
# Submitted via: ExactAudioCopy v1.0b3
#
DISCID=4a103918
DTITLE=Muddy Waters - The Complete Aristocrat and Chess Singles As and Bs 
DTITLE=1947-62 CD 3
DYEAR=2014
DGENRE=Blues
TTITLE0=I'm A Natural Born Lover
TTITLE1=I Want To Be Loved
TTITLE2=My Eyes Keep Me In Trouble
TTITLE3=Manish Boy
TTITLE4=Young Fashioned Ways
TTITLE5=Trouble No More
TTITLE6=Sugar Sweet
TTITLE7=Forty Days And Forty Nights
TTITLE8=All Aboard
TTITLE9=Don't Go No Farther
TTITLE10=Diamonds At Your Feet
TTITLE11=I Got To Find My Baby
TTITLE12=Just To Be With You
TTITLE13=Got My Mojo Working
TTITLE14=Rock Me
TTITLE15=Good News
TTITLE16=Come Home Baby
TTITLE17=I Live The Life I Love
TTITLE18=Evil
TTITLE19=I Won't Go On
TTITLE20=She's Got It
TTITLE21=Close To You
TTITLE22=She's Nineteen Years Old
TTITLE23=Mean Mistreater
EXTD=
EXTT0=
EXTT1=
EXTT2=
EXTT3=
EXTT4=
EXTT5=
EXTT6=
EXTT7=
EXTT8=
EXTT9=
EXTT10=
EXTT11=
EXTT12=
EXTT13=
EXTT14=
EXTT15=
EXTT16=
EXTT17=
EXTT18=
EXTT19=
EXTT20=
EXTT21=
EXTT22=
EXTT23=
PLAYORDER=
